<?xml version="1.0" encoding="utf-8"?>
<!-- Generator: Adobe Illustrator 21.0.0, SVG Export Plug-In . SVG Version: 6.00 Build 0)  -->
<svg version="1.1" xmlns="http://www.w3.org/2000/svg" xmlns:xlink="http://www.w3.org/1999/xlink" x="0px" y="0px"
	 viewBox="0 0 219 174" style="enable-background:new 0 0 219 174;" xml:space="preserve">
<style type="text/css">
	.st0{display:none;}
	.st1{display:inline;fill:#F3E12C;}
	.st2{fill:#FFFFFF;}
	.st3{fill:#F3E12C;}
</style>
<g id="Layer_2" class="st0">
	<rect x="-0.5" y="-0.5" class="st1" width="219" height="174"/>
</g>
<g id="Layer_1">
	<circle cx="110.5" cy="87.5" r="75.9"/>
	<circle class="st2" cx="110.5" cy="87.5" r="73.1"/>
	<g>
		<path class="st3" d="M132.3,126.6c-0.3-1.5-1.2-2.8-2.1-4c-2.9-3.8-6.9-6.7-11.3-8.5c-0.8,0.5-1.5,1-2.3,1.5
			c-2.1-1.3-3.6-3.4-4.1-5.8c-2.5,1.2-5.7,0.7-7.6-1.3c-7.4,1.3-14.3,5.4-19.1,11.3c0.3-2-1.7-3.5-3.5-4.2c-1.9-0.7-4-1.1-5.2-2.7
			c-0.4-0.6-0.7-1.2-1.2-1.7c-1.2-0.9-2.9,0-3.8,1.3c-0.9,1.2-1.5,2.7-2.7,3.5c-3.6-2.6-4.2-8.6-1.1-11.8c3-3.3,9-3.1,11.9,0.3
			c1.2-0.6,1.8-2.2,1.2-3.5c-3.6-7-3.2-15.8,1.1-22.4c0.8-1.2,1.7-2.4,1.9-3.8c0.2-1.4-0.3-2.8-1.1-4c-2.2-3.3-6.6-4.8-10.4-3.6
			c-3.8,1.2-6.5,5-6.4,9c-0.8,2.4-4.9,1.4-5.5-1c-0.7-2.4,0.7-4.9,2.1-7c1.3-2.1,3.3-4.5,5.8-4c0.6-4.4,1.1-8.9,1.7-13.3
			c-0.5,4.3-10.3-3.3-10.9-3.3c-2.3,0.2-4,4.6-4.8,6.3c-1.2,2.2-4.8,16-7,16.6c-0.7,0.2-7.2,4.2-7.2,4.2s-1,0.5-1,0.5
			c-0.7,0.3-0.8,5.5-0.8,6.1c1.3-0.6,2.8,0.4,3.4,1.7c0.6,1.3,0.4,2.7,0.2,4.1c-0.6,5.2-1.1,10.8,1.1,15.6c0.9,2.2,2.4,4.1,3.8,5.9
			c2.5,3.4,5.1,6.8,7.6,10.2c1.4-1.5,1.4-4,0.1-5.5c3.6,0.2,3.8,6.1,7,7.8c1.2,0.6,2.7,0.6,4,0.5c5.1-0.4,10.2-0.8,15.3-1.2
			c2.7,3.2,8.4,3.1,11.1-0.2c2.9,2.6-0.7,7.4-0.1,11.3c0.4,2.7,2.9,4.7,5.5,5.5c2.6,0.8,5.4,0.8,8.1,1.2c6.2,0.9,12.1,4,16.3,8.8
			c0.7,0.8,1.4,1.6,2.4,1.6c1.4,0,2.2-1.6,2.7-2.9c1.5-4.4,3-8.8,4.5-13.2c0.6-1.8,1.2-3.6,0.9-5.5
			C132.3,126.8,132.3,126.7,132.3,126.6z"/>
		<path class="st3" d="M112.1,17.4c0.2,0.6,1.6,0.9,0.3,1.4c-1.3,0.5-2,1.1-2.1,1.5c-0.2,0.3-0.8,0.5-1.3,1.2
			c-0.5,0.7-0.5,0.7-1.4,1.5c-0.8,0.7-0.8,0.7-0.8,0.7c-0.2,0.2-0.3,0.3-0.5,0.5c0,0-0.8,0.1-1.3-0.2c-0.5-0.4-0.5-1-1.2-0.9
			c-0.9,0.1-1.3,1.7-1,2.3c0.3,0.7,1.2,1.1,2,0.9c-1.2,0.8-1.9,2.2-2.5,3.5c-0.6,1.4-1.2,2.7-1.8,4.1c-0.1,0.3-0.3,0.6-0.4,0.9
			c-0.8,1.7-0.7,4.1,0.3,4.1c1,0,2,0.5,2.3,1.4c0.4,1.1-0.4,2.3-1.3,3c-0.9,0.7-2,1.2-2.9,1.9c-0.9,0.8-1.4,2.2-0.7,3.1
			c0.5,0.7,1.5,1,1.9,1.8c0.2,0.6,0.1,1.3,0.4,1.8c0.5,0.9,1.9,0.7,2.9,0.3c1-0.4,2.2-0.9,3-0.2c-0.8-2.1,2.7-3.7,2.4-5.9
			c-0.1-1-1.1-1.9-1.2-2.9c-0.1-1.4,1.6-2.8,1-4.1c-0.2-0.3-0.5-0.6-0.5-1c0-0.9,1.3-0.9,2-1.4c1.2-0.8,0.8-3,2.1-3.5
			c0.7-0.3,1.5,0.3,2.3,0.4c2,0.4,2.9-2.8,0.4-3c-0.6,0-1.4-0.2-1.6-0.8c5-2,11-0.8,14.9,2.9c0.6-1.1,1.1-2.2,1-3.4
			c-0.2-1.2-1.5-2.2-2.6-1.7c0.2-0.8,0.4-1.5,0.6-2.3c0-0.2,0.1-0.4,0.2-0.5c0.4-0.4,1,0.2,1.4,0.6c1.4,1.6,4,1.7,5.9,0.7
			c1.9-1,3.3-2.7,4.6-4.4c0.4-0.5,3.1,4.8,3.1,5.7c-0.2,2-1.7,2.1-3.3,3c-2.4,1.4-4.8,2.9-7.1,4.3c-0.2,0.1-0.4,0.3-0.5,0.5
			c-0.4,0.7,0.4,1.4,0.6,2.1c0.4,1.5-1.5,2.4-3,2.8c-2.5,0.6-5.1,1.2-7.6,1.8c-0.5,0.1-1.4,0.1-1.4-0.5c0-0.4,0.4-0.6,0.6-0.9
			c0.6-0.8-0.2-1.9-1.1-2.1c-0.9-0.2-1.9,0.3-2.6,0.9c-3.6,2.6-5.9,6.7-8.3,10.4c-1,1.5-2,2.9-2.6,4.6c-0.6,1.7-0.7,3.6,0.2,5.1
			c0.5,0.8,1.2,1.5,1.2,2.4c0,0.8-0.5,1.4-0.8,2.1c-1.2,2.6-0.2,5.6,0.9,8.2c0.3,0.8,0.7,1.7,1.2,2.3c0.6,0.7,1.5,1.2,2.2,1.9
			c1.7,1.5,2.6,3.8,2.3,6.1c1-0.2,1.7,0.8,2.3,1.6c2.1,2.7,4.4-1,6.7,0.4c1.8,1.1,4.1,2,6.1,2.4c4,0.7,1.7-2.1,4.3-3.9
			c0.9-0.6,2-1.1,2.5-2.1c0.6-1.1,0.1-2.4,0.6-3.6c0.6-1.5,2.7-2.5,4.2-1.9c0.8,0.3,1.5,0.9,2.3,0.8c1.1-0.2,1.5-1.5,1.6-2.6
			c0.6-0.6,1.7-0.4,2.3,0.2c0.6,0.6,0.9,1.5,1.2,2.3c0.4,1,0.8,1.9,1.4,2.8c0.2,0.3,0.4,0.6,0.8,0.7c0.4,0.1,0.8-0.1,1.2-0.2
			c1.5-0.3,3,0.7,4.2,1.7c1.6,1.3,3.2,2.7,4.8,4c0.2,0.2,0.5,0.4,0.6,0.7c0.3,0.5,0.2,1.2,0.2,1.7c0,2.6,1.8,5,4.3,5.8
			c1,0.3,2,0.3,2.9,0.6c0.9,0.3,1.9,1,2.1,2c0,0.2,0,0.5,0.1,0.7c0.5,1,2.1,0.3,3,0.9c0.6,0.4,0.8,1.4,1.5,1.4c0.4,0,0.8-0.3,1-0.6
			c3.2-3.4,8.3-5.1,8.6-9.8c0-0.4-0.1-3.5,0-4.7c0.1-0.9-1.7-9.8-2.2-12.1c-0.6-3.5-1.7-7-3-10.3c-2.7-7-6.5-13.8-11.2-19.7
			c-14.4-18.1-33.7-26.8-53.9-27.7c-0.4,0.3-1,0.5-1.5,0.9C111.5,15.8,111.9,16.8,112.1,17.4z"/>
	</g>
</g>
</svg>
