<?xml version="1.0" encoding="utf-8"?>
<!-- Generator: Adobe Illustrator 21.0.0, SVG Export Plug-In . SVG Version: 6.00 Build 0)  -->
<svg version="1.1" id="Layer_1" xmlns="http://www.w3.org/2000/svg" xmlns:xlink="http://www.w3.org/1999/xlink" x="0px" y="0px"
	 viewBox="0 0 422 336" style="enable-background:new 0 0 422 336;" xml:space="preserve">
<style type="text/css">
	.st0{fill:#F4E12F;stroke:#000000;stroke-width:10;stroke-miterlimit:10;}
	.st1{opacity:0.5;}
</style>
<path class="st0" d="M106.8,114.8H83.2c-13,0-23.6,9.2-23.6,20.4v143c0,11.3,10.6,20.4,23.6,20.4h23.6c13,0,23.6-9.2,23.6-20.4v-143
	C130.3,123.9,119.8,114.8,106.8,114.8z"/>
<path class="st0" d="M211.4,25.6h-24.8c-13.7,0-24.8,11.1-24.8,24.8v223.4c0,13.7,11.1,24.8,24.8,24.8h24.8
	c13.7,0,24.8-11.1,24.8-24.8V50.4C236.2,36.7,225.1,25.6,211.4,25.6z"/>
<path class="st0" d="M316.2,75.2h-24.8c-13.7,0-24.8,11.1-24.8,24.8v173.7c0,13.7,11.1,24.8,24.8,24.8h24.8
	c13.7,0,24.8-11.1,24.8-24.8V100C341,86.3,329.9,75.2,316.2,75.2z"/>
<path d="M132.2,182.4l-69.6,18.2c-1.9,0.5-3.8-0.6-4.3-2.5l-0.2-0.9c-0.5-1.9,0.6-3.8,2.5-4.3l69.6-18.2c1.9-0.5,3.8,0.6,4.3,2.5
	l0.2,0.9C135.2,180,134.1,181.9,132.2,182.4z"/>
<path class="st1" d="M132.2,186.4l-69.6,18.2c-1.9,0.5-3.8-0.6-4.3-2.5l-0.2-0.9c-0.5-1.9,0.6-3.8,2.5-4.3l69.6-18.2
	c1.9-0.5,3.8,0.6,4.3,2.5l0.2,0.9C135.2,184,134.1,185.9,132.2,186.4z"/>
<path d="M131.2,218.4l-69.6,18.2c-1.9,0.5-3.8-0.6-4.3-2.5l-0.2-0.9c-0.5-1.9,0.6-3.8,2.5-4.3l69.6-18.2c1.9-0.5,3.8,0.6,4.3,2.5
	l0.2,0.9C134.2,216,133.1,217.9,131.2,218.4z"/>
<path class="st1" d="M130.8,221.9l-69.6,18.2c-1.9,0.5-3.8-0.6-4.3-2.5l-0.2-0.9c-0.5-1.9,0.6-3.8,2.5-4.3l69.6-18.2
	c1.9-0.5,3.8,0.6,4.3,2.5l0.2,0.9C133.8,219.5,132.7,221.4,130.8,221.9z"/>
<path d="M131.2,250.4l-69.6,18.2c-1.9,0.5-3.8-0.6-4.3-2.5l-0.2-0.9c-0.5-1.9,0.6-3.8,2.5-4.3l69.6-18.2c1.9-0.5,3.8,0.6,4.3,2.5
	l0.2,0.9C134.2,248,133.1,249.9,131.2,250.4z"/>
<path class="st1" d="M132.2,253l-69.6,18.2c-1.9,0.5-3.8-0.6-4.3-2.5l-0.2-0.9c-0.5-1.9,0.6-3.8,2.5-4.3l69.6-18.2
	c1.9-0.5,3.8,0.6,4.3,2.5l0.2,0.9C135.2,250.6,134.1,252.5,132.2,253z"/>
<path d="M340.2,133.4l-69.6,18.2c-1.9,0.5-3.8-0.6-4.3-2.5l-0.2-0.9c-0.5-1.9,0.6-3.8,2.5-4.3l69.6-18.2c1.9-0.5,3.8,0.6,4.3,2.5
	l0.2,0.9C343.2,131,342.1,132.9,340.2,133.4z"/>
<path class="st1" d="M339.6,138.1L270,156.3c-1.9,0.5-3.8-0.6-4.3-2.5l-0.2-0.9c-0.5-1.9,0.6-3.8,2.5-4.3l69.6-18.2
	c1.9-0.5,3.8,0.6,4.3,2.5l0.2,0.9C342.6,135.7,341.5,137.6,339.6,138.1z"/>
<path class="st1" d="M341.2,173.4l-69.6,18.2c-1.9,0.5-3.8-0.6-4.3-2.5l-0.2-0.9c-0.5-1.9,0.6-3.8,2.5-4.3l69.6-18.2
	c1.9-0.5,3.8,0.6,4.3,2.5l0.2,0.9C344.2,171,343.1,172.9,341.2,173.4z"/>
<path class="st1" d="M341.2,204.1l-69.6,18.2c-1.9,0.5-3.8-0.6-4.3-2.5l-0.2-0.9c-0.5-1.9,0.6-3.8,2.5-4.3l69.6-18.2
	c1.9-0.5,3.8,0.6,4.3,2.5l0.2,0.9C344.2,201.7,343.1,203.6,341.2,204.1z"/>
<path d="M340.2,169.4l-69.6,18.2c-1.9,0.5-3.8-0.6-4.3-2.5l-0.2-0.9c-0.5-1.9,0.6-3.8,2.5-4.3l69.6-18.2c1.9-0.5,3.8,0.6,4.3,2.5
	l0.2,0.9C343.2,167,342.1,168.9,340.2,169.4z"/>
<path d="M341.2,199.4l-69.6,18.2c-1.9,0.5-3.8-0.6-4.3-2.5l-0.2-0.9c-0.5-1.9,0.6-3.8,2.5-4.3l69.6-18.2c1.9-0.5,3.8,0.6,4.3,2.5
	l0.2,0.9C344.2,197,343.1,198.9,341.2,199.4z"/>
<path d="M235.2,223.4l-69.6,18.2c-1.9,0.5-3.8-0.6-4.3-2.5l-0.2-0.9c-0.5-1.9,0.6-3.8,2.5-4.3l69.6-18.2c1.9-0.5,3.8,0.6,4.3,2.5
	l0.2,0.9C238.2,221,237.1,222.9,235.2,223.4z"/>
<path d="M236.2,156.4l-69.6,18.2c-1.9,0.5-3.8-0.6-4.3-2.5l-0.2-0.9c-0.5-1.9,0.6-3.8,2.5-4.3l69.6-18.2c1.9-0.5,3.8,0.6,4.3,2.5
	l0.2,0.9C239.2,154,238.1,155.9,236.2,156.4z"/>
<path class="st1" d="M236.2,159.5l-69.6,18.2c-1.9,0.5-3.8-0.6-4.3-2.5l-0.2-0.9c-0.5-1.9,0.6-3.8,2.5-4.3l69.6-18.2
	c1.9-0.5,3.8,0.6,4.3,2.5l0.2,0.9C239.2,157.1,238.1,159,236.2,159.5z"/>
<path class="st1" d="M236.2,197.5l-69.6,18.2c-1.9,0.5-3.8-0.6-4.3-2.5l-0.2-0.9c-0.5-1.9,0.6-3.8,2.5-4.3l69.6-18.2
	c1.9-0.5,3.8,0.6,4.3,2.5l0.2,0.9C239.2,195.1,238.1,197,236.2,197.5z"/>
<path d="M234.2,194.4l-69.6,18.2c-1.9,0.5-3.8-0.6-4.3-2.5l-0.2-0.9c-0.5-1.9,0.6-3.8,2.5-4.3l69.6-18.2c1.9-0.5,3.8,0.6,4.3,2.5
	l0.2,0.9C237.2,192,236.1,193.9,234.2,194.4z"/>
<path class="st1" d="M234.2,226.8L164.6,245c-1.9,0.5-3.8-0.6-4.3-2.5l-0.2-0.9c-0.5-1.9,0.6-3.8,2.5-4.3l69.6-18.2
	c1.9-0.5,3.8,0.6,4.3,2.5l0.2,0.9C237.2,224.4,236.1,226.3,234.2,226.8z"/>
</svg>
