<?xml version="1.0" encoding="utf-8"?>
<!-- Generator: Adobe Illustrator 21.0.0, SVG Export Plug-In . SVG Version: 6.00 Build 0)  -->
<svg version="1.1" id="Layer_1" xmlns="http://www.w3.org/2000/svg" xmlns:xlink="http://www.w3.org/1999/xlink" x="0px" y="0px"
	 viewBox="0 0 422 336" style="enable-background:new 0 0 422 336;" xml:space="preserve">
<style type="text/css">
	.st0{fill:#FFFFFF;stroke:#000000;stroke-width:2;stroke-miterlimit:10;}
	.st1{fill:#FFE900;}
	.st2{fill:none;stroke:#000000;stroke-width:2;stroke-miterlimit:10;}
	.st3{fill:#FFFFFF;}
	.st4{fill:#FCFCFC;}
	.st5{fill:#FFFFFF;stroke:#000000;stroke-width:3;stroke-miterlimit:10;}
	.st6{fill:none;stroke:#000000;stroke-width:3;stroke-miterlimit:10;}
</style>
<g>
	<path class="st0" d="M279.9,286.9c-2.6,5.1-6.8,7-12.7,5.1c-10.8-3.5-21.6-7.3-32.4-11c-18.8-6.5-37.6-12.9-56.4-19.5
		c-6.6-2.3-8.9-7.2-6.6-13.9c11.5-33.1,23-66.2,34.5-99.3c9-26,18.1-52,27.1-78c2.4-6.9,7.3-9.6,14.2-7.3
		c25.5,8.7,50.9,17.6,76.4,26.4c3.6,1.2,7.1,2.5,10.7,3.7c7.8,2.6,10.2,7,7.5,14.8c-4.8,14.4-9.9,28.7-14.9,43
		c-10.1,29.1-20.2,58.2-30.3,87.3c-5.4,15.5-10.7,30.9-16.1,46.4C280.6,285.3,280.2,286.2,279.9,286.9z"/>
	<path class="st1" d="M242.4,74.6c30.1,10,59.8,19.8,90,29.9c-21.2,59.1-38.2,112.5-59.6,172c-6.3-2.1-12.6-4-18.8-6.1
		c-22.5-7.5-45-15-67.6-22.4c-3.1-1-3.6-2.3-2.4-5.4c18.3-50.9,32.5-96.4,50.8-147.3C237.3,88.5,239.8,81.8,242.4,74.6z"/>
	<path class="st2" d="M185.4,247.1c1,0.4,1.7,0.7,2.4,0.9c13.3,4.6,26.6,9.2,39.9,13.8c13.3,4.6,26.6,9.2,39.9,13.8
		c2.5,0.9,5,2.2,6.4-1.9c4.6-13.6,14.4-41.1,19.1-54.6c12.7-36.7,25.4-73.4,38.1-110c1.6-4.6,1.3-5.1-3.5-6.7
		c-8.3-2.8-16.5-5.7-24.8-8.5c-18.8-6.5-37.6-12.9-56.4-19.5c-2.6-0.9-4-0.5-4.9,2.3c-2.4,7.4-5.1,14.7-7.6,22
		c-10.6,30.6-21.2,61.2-31.9,91.8c-4.3,12.5-13.8,39-18.1,51.5C183.3,244.1,182.6,246.3,185.4,247.1z"/>
</g>
<g>
	<path class="st3" d="M267.4,202.3l-38.1-13.7c-2.2-0.8-3.3-3.2-2.6-5.4l8.5-23.5c0.8-2.2,3.2-3.3,5.4-2.6l38.1,13.7
		c2.2,0.8,3.3,3.2,2.6,5.4l-8.5,23.5C272.1,202,269.6,203.1,267.4,202.3z"/>
	<path d="M279.4,182.4c-0.4-0.2-1,0.2-1.2,0.8L272,200c-0.5,1.4-1.8,2.2-2.8,1.9l-40.7-15c-1-0.4-1.5-1.8-0.9-3.3l6.2-16.8
		c0.2-0.6,0-1.2-0.4-1.4c-0.4-0.2-1,0.2-1.2,0.8l-6.2,16.8c-1,2.6-0.2,5.3,1.7,6l40.7,15c1.9,0.7,4.2-0.8,5.2-3.4l6.2-16.8
		C280,183.1,279.8,182.5,279.4,182.4z"/>
	<path d="M288.1,164.5l-4.6-1.7c2.1-0.8,3.7-1.8,4.7-3.1c1-1.3,2-3.5,0.9-6.7c-1.3-3.9-3.8-5.3-5.7-5.8c-3.3-0.9-7.7,0.3-12.8,3.5
		c-0.8,0.5-1.7,1.1-2.6,1.7c-0.4-0.7-1-1.2-1.7-1.5l-2.8-1c-0.8-0.3-1.6-0.3-2.3,0c-0.3-1-0.5-2-0.8-3c-1.8-5.8-4.3-9.5-7.5-11
		c-1.8-0.8-4.6-1.4-8.1,0.7c-2.9,1.7-3.6,4.1-3.6,5.7c-0.1,1.7,0.4,3.5,1.5,5.4l-4.6-1.7c-1.1-0.4-2.4,0.2-2.8,1.3l-2.1,5.8
		c-0.4,1.1,0.2,2.4,1.3,2.8l1.1,0.4l-3.6,9.8c-0.2,0.4,0.1,0.9,0.5,1.1c0.4,0.2,0.9-0.1,1.1-0.5l3.6-9.8l16.6,6.1l-5.4,14.7
		c0,0.1-0.1,0.2-0.1,0.3c-0.1,0.5,0.1,1,0.5,1.3c0,0,0.1,0.1,0.1,0.1c0.1,0.1,0.3,0.2,0.4,0.2c0.3,0.1,0.7,0.1,1,0c0,0,0.1,0,0.1,0
		l2-0.8l3.3,1.2l1.1,2l0,0c0.2,0.3,0.5,0.6,0.8,0.7c0.2,0.1,0.4,0.1,0.7,0.1c0.6-0.1,1.1-0.4,1.3-1l5.4-14.8l16.6,6.1l-3.6,9.8
		c-0.2,0.4,0.1,0.9,0.5,1.1s0.9-0.1,1.1-0.5l3.6-9.8l1.1,0.4c1.1,0.4,2.4-0.2,2.8-1.3l2.1-5.8C289.9,166.2,289.3,165,288.1,164.5z"
		/>
	<path class="st4" d="M254.4,161.6l-19.3-7.1c-0.3-0.1-0.4-0.4-0.3-0.7l2.1-5.8c0.1-0.3,0.4-0.4,0.7-0.3l19.2,7.1l0,0L254.4,161.6z"
		/>
	<path class="st1" d="M254.7,152.2c-1-0.9-3-2.6-4-3.7c-2.7-2.9-3.7-4.9-3.6-5.8c0-0.2,0-0.5,0.8-1c1.5-0.9,2.2-0.6,2.5-0.4
		c0.7,0.3,2.6,1.8,4.4,7.4c0.5,1.4,0.8,2.8,1,4L254.7,152.2L254.7,152.2z"/>
	<path class="st4" d="M259.6,151.5l-0.1,0.2l-0.7,1.9l-0.2-0.1l-0.5-0.2l-0.3-0.1c-0.3-1.3-0.7-3.2-1.3-5.1
		c-1.8-5.8-3.9-7.8-5.3-8.4c-1.2-0.6-2.6-0.4-4.1,0.5c-1.1,0.6-1.6,1.4-1.6,2.3c-0.1,2.3,2.5,5.4,4.1,7.1c0.3,0.3,0.6,0.6,0.9,1
		l-5-1.9c-1.8-2.4-2.6-4.5-2.5-6.3c0.1-1.2,0.6-3,2.8-4.4c2.9-1.7,5.1-1.3,6.5-0.6c2.7,1.3,4.9,4.6,6.6,10c0.4,1.1,0.7,2.3,1,3.5
		C259.7,151.2,259.7,151.3,259.6,151.5z"/>
	<path class="st4" d="M261.1,152.4c0.3-0.8,1.2-1.2,2-0.9l2.8,1c0.8,0.3,1.2,1.2,0.9,2l-0.7,1.9l-5.7-2.1L261.1,152.4z"/>
	<polygon points="252.5,179.2 254.6,178.4 255.8,180.4 	"/>
	<path class="st4" d="M258.3,181.3l-2.3-3.9c0,0,0-0.1-0.1-0.1c0,0,0,0,0,0c0,0,0-0.1-0.1-0.1c0,0,0,0,0,0c0,0,0,0-0.1-0.1
		c0,0,0,0,0,0c0,0,0,0-0.1-0.1c0,0,0,0,0,0c0,0,0,0-0.1,0c0,0,0,0,0,0c0,0,0,0-0.1,0c0,0,0,0-0.1,0c0,0,0,0-0.1,0c0,0,0,0-0.1,0
		c0,0,0,0-0.1,0c0,0,0,0,0,0c0,0,0,0-0.1,0c0,0,0,0-0.1,0c0,0,0,0-0.1,0c0,0,0,0-0.1,0c0,0-0.1,0-0.1,0c0,0,0,0-0.1,0
		c0,0-0.1,0-0.1,0c0,0,0,0-0.1,0c0,0-0.1,0-0.1,0c0,0,0,0-0.1,0c0,0-0.1,0-0.1,0c0,0,0,0,0,0c0,0-0.1,0-0.1,0c0,0,0,0,0,0
		c0,0-0.1,0-0.1,0l-4,1.5l0,0l8.4-22.9l0.2,0.1l7.7,2.8l0.2,0.1L258.3,181.3L258.3,181.3z"/>
	<path class="st4" d="M268.6,157.3l-0.3-0.1l-0.5-0.2l-0.2-0.1l0.7-1.9l0.1-0.2c0.1-0.2,0.1-0.4,0.2-0.6c1-0.8,2-1.4,3-2.1
		c4.7-3,8.6-4.1,11.5-3.3c1.5,0.4,3.5,1.5,4.5,4.7c0.8,2.5,0.1,4.2-0.7,5.2c-1.1,1.5-3.1,2.5-6,3.2l-5-1.9c0.4,0,0.9-0.1,1.3-0.1
		c2.3-0.2,6.3-0.9,7.7-2.7c0.6-0.8,0.7-1.7,0.3-2.8c-0.6-1.7-1.5-2.7-2.8-3.1c-1.5-0.4-4.4-0.2-9.5,3
		C271.2,155.3,269.6,156.5,268.6,157.3z"/>
	<path class="st1" d="M271.6,158.4l-1.2-0.4c0.9-0.7,2.1-1.5,3.4-2.3c5-3.2,7.4-3,8.2-2.8c0.3,0.1,1.1,0.3,1.6,2
		c0.3,0.9,0.1,1.1,0,1.3c-0.6,0.8-2.6,1.7-6.6,2.1C275.6,158.4,272.9,158.4,271.6,158.4z"/>
	<path class="st4" d="M285.8,172.6c-0.1,0.3-0.4,0.4-0.7,0.3l-19.3-7.1l2.5-6.8l0,0l19.2,7.1c0.3,0.1,0.4,0.4,0.3,0.7L285.8,172.6
		L285.8,172.6z"/>
</g>
<path class="st5" d="M231.8,274.1c-0.4,6.9-4.3,11-11.7,11.6c-13.7,1.2-27.5,2-41.2,3c-24,1.6-48,3.3-71.9,4.9
	c-8.5,0.5-13.3-3.8-13.9-12.3c-2.9-42.3-5.7-84.5-8.5-126.8c-2.2-33.2-4.4-66.4-6.7-99.6c-0.6-8.8,3.5-14.2,12.3-14.8
	c32.5-2.3,64.9-4.5,97.4-6.7c4.5-0.3,9.1-0.5,13.6-0.9c9.8-0.8,14.6,2.9,15.4,12.9c1.4,18.3,2.5,36.5,3.8,54.8
	c2.5,37.1,5,74.3,7.5,111.4c1.3,19.7,2.7,39.5,4,59.2C231.8,272.1,231.8,273.2,231.8,274.1z"/>
<path class="st1" d="M89.6,56.2c38.2-3.2,75.9-6.4,114.2-9.6c4.2,77.3,10.3,146.1,14.5,223.9c-8,0.7-15.9,1.5-23.8,2.2
	c-28.6,2.4-57.2,4.7-85.7,7.3c-3.9,0.4-5-0.9-5.3-5c-3.5-66.6-9.1-125-12.7-191.7C90.4,74.5,90,65.7,89.6,56.2z"/>
<path class="st6" d="M107.5,278.8c1.3,0,2.2,0,3.1-0.1c17-1.2,33.9-2.4,50.9-3.7c17-1.2,33.9-2.4,50.9-3.7c3.2-0.2,6.6,0,6.3-5.2
	c-1.3-17.6-3.3-53.5-4.4-71c-3.1-47.6-6.2-95.3-9.3-142.9c-0.4-5.9-0.9-6.4-7-5.9c-10.5,0.8-21.1,1.6-31.6,2.3
	c-24,1.7-48,3.5-72,5.2c-3.3,0.2-4.7,1.4-4.4,5c0.8,9.5,1.2,19.1,1.9,28.6c2.6,39.8,5.1,79.5,7.7,119.3c1,16.2,3,50.8,4.1,67
	C103.8,276.4,104,279.3,107.5,278.8z"/>
<g>
	<path class="st3" d="M177.3,191.4l-43.9,3.5c-1.8,0.1-3.4-1.2-3.5-3l-2-25.2c-0.1-1.8,1.2-3.4,3-3.5l43.9-3.5
		c1.8-0.1,3.4,1.2,3.5,3l2,25.2C180.4,189.7,179.1,191.3,177.3,191.4z"/>
	<g>
		<g>
			<path d="M133.2,197.7l44.5-3.7c2.7-0.2,4.7-2.6,4.5-5.3l-2.2-26.6c-0.2-2.7-2.6-4.7-5.3-4.5l-3.4,0.3l-1-11.6
				c-0.9-10.4-10-18.1-20.4-17.3c-10.4,0.9-18.1,10-17.3,20.4l1,11.6l-3.4,0.3c-2.7,0.2-4.7,2.6-4.5,5.3l2.2,26.6
				C128.1,195.9,130.5,197.9,133.2,197.7z M136,149.1c-0.7-8.5,5.7-16,14.2-16.7c8.5-0.7,16,5.7,16.7,14.2l1,11.6l-31,2.5L136,149.1
				z M129.1,166.3c-0.1-0.8,0.6-1.6,1.4-1.7L175,161c0.8-0.1,1.6,0.6,1.7,1.4l2.2,26.6c0.1,0.8-0.6,1.6-1.4,1.7l-44.5,3.7
				c-0.8,0.1-1.6-0.6-1.7-1.4L129.1,166.3z"/>
			<path d="M154.5,184.5c3.8-0.3,6.6-3.6,6.3-7.4s-3.6-6.6-7.4-6.3s-6.6,3.6-6.3,7.4C147.5,182,150.8,184.8,154.5,184.5z
				 M153.7,174.2c1.9-0.2,3.6,1.3,3.8,3.2c0.2,1.9-1.3,3.6-3.2,3.8c-1.9,0.2-3.6-1.3-3.8-3.2S151.8,174.3,153.7,174.2z"/>
		</g>
	</g>
</g>
</svg>
