<?xml version="1.0" encoding="UTF-8"?>
<svg width="40px" height="40px" viewBox="0 0 40 40" version="1.1" xmlns="http://www.w3.org/2000/svg" xmlns:xlink="http://www.w3.org/1999/xlink">
    <!-- Generator: Sketch 50.2 (55047) - http://www.bohemiancoding.com/sketch -->
    <title>Icon</title>
    <desc>Created with Sketch.</desc>
    <defs></defs>
    <g id="Designs" stroke="none" stroke-width="1" fill="none" fill-rule="evenodd">
        <g id="fullhd---snap-kit-copy-8" transform="translate(-220.000000, -2221.000000)">
            <g id="Section:-Create-Kit" transform="translate(56.000000, 1611.000000)">
                <g id="Toggle" transform="translate(111.000000, 582.000000)">
                    <g id="Group-3" transform="translate(53.000000, 28.000000)">
                        <g id="Icon">
                            <circle id="Button" fill="#10ADFE" cx="20" cy="20" r="20"></circle>
                            <path d="M25.3846154,19.8861538 C25.3846154,16.9169231 22.9692308,14.5015385 20,14.5015385 C17.0307692,14.5015385 14.6153846,16.9169231 14.6153846,19.8861538 C14.6153846,22.8553846 17.0307692,25.2707692 20,25.2707692 C22.9692308,25.2707692 25.3846154,22.8553846 25.3846154,19.8861538 M31.2820513,20.1461538 C31.2820513,22.6651282 30.7015385,24.6015385 30.2153846,25.7825641 C29.8815385,26.594359 29.2671795,27.2415385 28.4871795,27.605641 C27.1415385,28.2338462 24.5774359,28.9820513 20,28.9820513 C15.4225641,28.9820513 12.8584615,28.2338462 11.5128205,27.605641 C10.7328205,27.2415385 10.1184615,26.594359 9.78410256,25.7825641 C9.29794872,24.6015385 8.71794872,22.6651282 8.71794872,20.1461538 C8.71794872,17.7035897 9.26717949,15.8092308 9.72769231,14.6502564 C10.0666667,13.7964103 10.7292308,13.1246154 11.5928205,12.76 C12.4035897,12.4179487 13.3297436,12.1276923 14.345641,11.8974359 C14.4302564,11.5974359 14.52,11.3210256 14.6230769,11.0641026 C14.8174359,10.5728205 15.1984615,10.1861538 15.694359,9.97641026 C16.5015385,9.63641026 17.9025641,9.23076923 20,9.23076923 C22.0974359,9.23076923 23.4984615,9.63641026 24.3051282,9.97641026 C24.8010256,10.185641 25.1820513,10.5723077 25.3779487,11.0646154 C25.4805128,11.3241026 25.5702564,11.6 25.6451282,11.8851282 C26.6702564,12.1276923 27.5958974,12.4179487 28.4071795,12.76 C29.2707692,13.1246154 29.9333333,13.7958974 30.2723077,14.6507692 C30.7328205,15.8097436 31.2820513,17.7035897 31.2820513,20.1461538 M23.3333333,19.8861538 C23.3333333,21.7241026 21.8379487,23.2194872 20,23.2194872 C18.1620513,23.2194872 16.6666667,21.7241026 16.6666667,19.8861538 C16.6666667,18.0482051 18.1620513,16.5528205 20,16.5528205 C21.8379487,16.5528205 23.3333333,18.0482051 23.3333333,19.8861538" id="Camera" fill="#FFFFFF"></path>
                        </g>
                    </g>
                </g>
            </g>
        </g>
    </g>
</svg>